<svg xmlns="http://www.w3.org/2000/svg" version="1.1" xmlns:xlink="http://www.w3.org/1999/xlink" xmlns:svgjs="http://svgjs.dev/svgjs" width="1000" height="1000"><g clip-path="url(#SvgjsClipPath1123)"><rect width="1000" height="1000" fill="#09090b"></rect><g transform="matrix(2.202643171806167,0,0,2.202643171806167,150.00000000000003,194.49339207048462)"><svg xmlns="http://www.w3.org/2000/svg" version="1.1" xmlns:xlink="http://www.w3.org/1999/xlink" xmlns:svgjs="http://svgjs.dev/svgjs" width="317.8" height="277.4"><svg id="Layer_2" xmlns="http://www.w3.org/2000/svg" version="1.1" viewBox="0 0 317.8 277.4">
  <!-- Generator: Adobe Illustrator 29.1.0, SVG Export Plug-In . SVG Version: 2.1.0 Build 142)  -->
  <defs>
    <style>
      .st0 {
        fill: #fafafa;
      }
    </style>
  <clipPath id="SvgjsClipPath1123"><rect width="1000" height="1000" x="0" y="0" rx="0" ry="0"></rect></clipPath></defs>
  <g id="Layer_1-2">
    <path class="st0" d="M1.1,12.6l150.5,260.7c3.2,5.6,11.3,5.6,14.5,0l63.5-110c1.5-2.5,1.5-5.7,0-8.2l-49.9-90.4c-3.1-5.6,1-12.4,7.4-12.4h38.9c6.4.2,10.4,7.2,7.2,12.7l-8.9,15.2c-1.4,2.5-1.5,5.5-.2,8l15.9,31.3c3,5.9,11.4,6.2,14.7.4l62-107.3c3.2-5.6-.8-12.6-7.2-12.6H99.2c-6.4,0-10.5,7-7.2,12.6l84.3,145.1c1.5,2.6,1.5,5.9,0,8.5l-6.1,10.1c-3.3,5.4-11.2,5.4-14.4-.1L56.3,4.2c-1.5-2.6-4.3-4.2-7.2-4.2H8.4C1.9,0-2.1,7,1.1,12.6Z"></path>
  </g>
</svg></svg></g></g></svg>