<svg xmlns="http://www.w3.org/2000/svg" version="1.1" xmlns:xlink="http://www.w3.org/1999/xlink" xmlns:svgjs="http://svgjs.dev/svgjs" width="1000" height="1000"><g clip-path="url(#SvgjsClipPath1386)"><rect width="1000" height="1000" fill="#ffffff"></rect><g transform="matrix(2.202643171806167,0,0,2.202643171806167,150.00000000000003,194.44933920704844)"><svg xmlns="http://www.w3.org/2000/svg" version="1.1" xmlns:xlink="http://www.w3.org/1999/xlink" xmlns:svgjs="http://svgjs.dev/svgjs" width="317.8" height="277.44"><svg id="Layer_2" data-name="Layer 2" xmlns="http://www.w3.org/2000/svg" viewBox="0 0 317.8 277.44">
  <g id="Layer_1-2" data-name="Layer 1">
    <path d="m1.13,12.55l150.52,260.71c3.22,5.58,11.27,5.58,14.49,0l63.51-110c1.47-2.54,1.5-5.66.08-8.22l-49.89-90.45c-3.08-5.59.97-12.43,7.36-12.41l38.87.14c6.45.02,10.45,7.03,7.19,12.59l-8.91,15.22c-1.44,2.46-1.53,5.48-.24,8.01l15.9,31.3c3.01,5.92,11.38,6.15,14.71.39l61.95-107.29c3.22-5.58-.81-12.55-7.25-12.55H99.23c-6.45,0-10.48,6.99-7.23,12.57l84.3,145.05c1.54,2.64,1.51,5.91-.07,8.53l-6.09,10.07c-3.29,5.45-11.22,5.37-14.4-.14L56.32,4.18c-1.5-2.59-4.26-4.18-7.24-4.18H8.38C1.94,0-2.09,6.97,1.13,12.55Z" style="fill: #231f20; stroke-width: 0px;"></path>
  </g>
</svg></svg></g></g><defs><clipPath id="SvgjsClipPath1386"><rect width="1000" height="1000" x="0" y="0" rx="0" ry="0"></rect></clipPath></defs></svg>